<?xml version="1.0" encoding="utf-8"?>
<!-- Generator: Adobe Illustrator 21.0.0, SVG Export Plug-In . SVG Version: 6.00 Build 0)  -->
<svg version="1.1" id="Layer_1" xmlns="http://www.w3.org/2000/svg" xmlns:xlink="http://www.w3.org/1999/xlink" x="0px" y="0px"
	 viewBox="0 0 456 456" style="enable-background:new 0 0 456 456;" xml:space="preserve">
<style type="text/css">
	.st0{fill:#236E96;}
</style>
<path class="st0" d="M392.4,177.7c-4.3-20.1-12.4-39.2-23.8-56.4c-1.7-2.6-1.5-6,0.4-8.3l26.5-32l-36.5-36.5l-32,26.5
	c-2.4,2-5.7,2.1-8.3,0.5c-17.2-11.3-36.4-19.4-56.5-23.8c-3-0.7-5.2-3.1-5.5-6.2l-4-41.5h-49.5l-4,41.5c-0.3,3-2.5,5.5-5.5,6.2
	c-20.1,4.4-39.2,12.5-56.5,23.8c-2.6,1.7-5.9,1.5-8.3-0.5l-32-26.5L60.7,81l26.5,32c2,2.4,2.2,5.8,0.4,8.3
	c-11.4,17.2-19.4,36.3-23.8,56.4c-0.6,3-3.1,5.2-6.1,5.5l-41.5,4v51.8l41.5,4c3,0.3,5.5,2.5,6.1,5.5c4.4,20.1,12.5,39.2,23.8,56.5
	c1.7,2.6,1.5,5.9-0.5,8.3l-26.2,31.7l23.6,20.9l41.9-60.1c-49.3-53.7-47.9-137.4,4.1-189.4c53.4-53.4,140.3-53.4,193.6,0
	c52,52,53.4,135.7,4.1,189.3l43.4,60.2l23.7-20.9l-26.2-31.7c-2-2.4-2.2-5.7-0.5-8.3c11.3-17.2,19.4-36.4,23.8-56.5
	c0.6-3,3.1-5.2,6.1-5.5l41.5-4v-51.8l-41.5-4C395.5,182.9,393.1,180.7,392.4,177.7z"/>
<path class="st0" d="M246,366.2c-3-0.9-5-3.6-5-6.7V227.6c0-2.7,1.6-5.2,4-6.3c17.3-8.2,29.4-26.9,29.4-45.4
	c0-20.5-9.6-35.7-26.6-43l2.2,28.3c0.2,2.3-0.8,4.5-2.5,5.9c-0.1,0.1-0.1,0.1-0.2,0.2c-13.6,10.6-32.6,10.7-46.3,0.3l-0.3-0.2
	c-1.9-1.4-2.9-3.8-2.7-6.1l2.3-27.5c-14.7,8.2-23.5,23.7-23.5,42.7c0,22.6,12.8,40.6,33.4,46.8c2.9,0.9,4.9,3.6,4.9,6.7v131.4
	c0,2.7-1.5,5.2-4,6.3c-14.2,6.6-29.3,23.6-29.1,45c0,20.4,9.4,35.7,26.1,43.3l-2.2-28c-0.2-2.3,0.8-4.6,2.6-6
	c13.6-10.6,32.6-10.7,46.3-0.3l0.3,0.2c1.9,1.4,2.9,3.8,2.7,6.1l-2.3,27.5c14.7-8.1,23.6-23.6,23.7-42.5
	C279.4,390.4,266.6,372.4,246,366.2z"/>
</svg>
