<?xml version="1.0" encoding="utf-8"?>
<!-- Generator: Adobe Illustrator 21.0.0, SVG Export Plug-In . SVG Version: 6.00 Build 0)  -->
<svg version="1.1" id="Layer_1" xmlns="http://www.w3.org/2000/svg" xmlns:xlink="http://www.w3.org/1999/xlink" x="0px" y="0px"
	 viewBox="0 0 512 512" style="enable-background:new 0 0 512 512;" xml:space="preserve">
<style type="text/css">
	.st0{fill:#236E96;}
</style>
<path class="st0" d="M33.7,377l65.5-45.8l73.3,104.8L107,481.8L33.7,377z"/>
<path class="st0" d="M475.2,326.6c0.5-2.8,0.2-5.6-0.8-8.2c-3-8.3-12.2-12.6-20.5-9.6l-79.7,29c-4.1,13.5-16.6,22.8-30.7,22.8
	c-1.9,0-3.8-0.2-5.7-0.6l-86.4-15.3l2.7-15.7l86.5,15.3c8.1,1.5,16-3.4,18.3-11.4c0.7-2.2,0.8-4.5,0.4-6.7c-0.3-2.5-1.2-4.8-2.6-6.9
	c-2.5-3.5-6.2-5.9-10.4-6.6L266,298.6c-23.6-4.1-47.9-2.6-70.8,4.4l-1.4,0.4c-15.2,4.6-29.5,11.6-42.5,20.8l-25.1,17.5l50.5,72.2
	c18.9-13,42.2-18,64.7-13.9l14.3,2.4c15.2,2.7,30.9,1.4,45.4-3.9l163.8-59.6C470.3,336.9,474.2,332.2,475.2,326.6L475.2,326.6z"/>
<path class="st0" d="M456,96V72c0-4.4-3.6-8-8-8h-88v32H456z"/>
<path class="st0" d="M314.3,114.3c3.1-3.1,8.2-3.1,11.4,0l18.3,18.4V64h-48v68.7L314.3,114.3z"/>
<path class="st0" d="M184,72v24h96V64h-88C187.6,64,184,67.6,184,72z"/>
<path class="st0" d="M285,159.4c-3-1.2-5-4.1-5-7.4v-40h-96v177.8c1.8-0.6,3.5-1.4,5.4-1.8l1.4-0.5c25.2-7.6,51.9-9.2,77.9-4.6
	l80.4,14.2c5.5,1,10.6,3.4,14.8,7h56.2l28.3-10.3c2.4-0.8,5-1.4,7.5-1.6V112h-96v40c0,3.2-2,6.2-5,7.4c-0.9,0.4-2,0.7-3,0.6
	c-2.1,0-4.2-0.8-5.7-2.3L320,131.3l-26.3,26.4C291.4,159.9,287.9,160.6,285,159.4L285,159.4z"/>
</svg>
