<svg xmlns="http://www.w3.org/2000/svg" viewBox="0 0 686.92 284.45"><defs><style>.cls-1{fill:#236e96;}.cls-2,.cls-3{fill:none;}.cls-3{stroke:#000;stroke-miterlimit:10;}.cls-4{fill:#f7931e;}</style></defs><title>Asset 1</title><g id="Layer_2" data-name="Layer 2"><g id="Layer_1-2" data-name="Layer 1"><path class="cls-1" d="M68.1,5.71q-10,0-17.09,4.58T43.95,21.13q0,6.42,7.06,11.1t17.07,4.68H225.2L61.62,210.56c31.33-23.73,71-53.77,117.31-89.22,32.43-24.81,62.3-47.82,89.1-68.55l25.62-27.25V5.71Z"/><path class="cls-1" d="M289.9,272.35a16.23,16.23,0,0,0,5.25-1.74A31.28,31.28,0,0,1,289.9,272.35Zm15.73-92.21c-2.41,0-5.6-1.23-9.56-3.69a55,55,0,0,1-6.79,14.92,16.48,16.48,0,0,0,11.07,3.92q13.33,0,13.34-18.08A13.58,13.58,0,0,1,305.63,180.14Z"/><path class="cls-1" d="M674.69,257.17c-2.34,1.74-4.15,2.6-5.45,2.6q-3.08,0-3.09-4.21t4.44-16.73Q675,226.18,675,218.12a13.2,13.2,0,0,0-2.64-8.45,8.3,8.3,0,0,0-6.79-3.31q-4.67,0-10.21,3.88t-18.28,16.62q.75-6.48.76-8.89a13.39,13.39,0,0,0-2.45-8.4,7.64,7.64,0,0,0-6.37-3.21q-10.77,0-31,23.58a170.74,170.74,0,0,1,7.61-23.73l-18.23,3.54a153.07,153.07,0,0,0-9.34,23.84,72,72,0,0,0-2.23,11.86Q568,254,563.06,254a11.78,11.78,0,0,1-8.06-3.53q7.69-20.5,7.68-34.59a14.13,14.13,0,0,0-.67-4.74q-.68-1.88-3.66-3.28c-2-.93-5.11-1.39-9.38-1.39a39.58,39.58,0,0,0-29.15,12.32A40.38,40.38,0,0,0,507.67,246a68.79,68.79,0,0,1-11.54,10,20.74,20.74,0,0,1-11.49,3.5,14,14,0,0,1-11.46-5.34q-4.29-5.35-4.29-14.31a37.19,37.19,0,0,1,4.55-18.53q4.55-8.14,10.06-8.13a4.3,4.3,0,0,1,3.72,2,9.26,9.26,0,0,1,1.39,5.34c0,.5-.15,1.87-.45,4.1s-.44,3.56-.44,4q0,1.5,1,1.5a6.18,6.18,0,0,0,2.34-.74l8.75-4.15a8.12,8.12,0,0,0,3-2.11,5.25,5.25,0,0,0,.79-3.16,12.32,12.32,0,0,0-4.22-9.68,15.9,15.9,0,0,0-10.93-3.73q-13.63,0-25.34,13.59Q452.9,232,451.6,245.69q-6.08,6.76-9,8.84a10,10,0,0,1-5.91,2.15,3.26,3.26,0,0,1-2.75-1.55,6.87,6.87,0,0,1-1.09-4q0-6.24,4.67-20.87l7.54-23.58h-.91l-19.14,4q-8,20.93-10.1,35.16v-.58q-9.41,9.25-14,12.2a16.21,16.21,0,0,1-8.67,2.94,7.29,7.29,0,0,1-6.4-3.85q-2.41-3.83-2.41-10.39,0-2.95.6-10.78,15.06-16.35,22.15-30.73a66.68,66.68,0,0,0,7.09-29.76,22.05,22.05,0,0,0-1.39-8.63c-.93-2.13-2.13-3.2-3.58-3.2a4.53,4.53,0,0,0-1.36.3l-19.14,7.08a241.57,241.57,0,0,0-16.65,40.83Q365,231.12,364.4,245.9h0c-5.95,5.79-10.39,9.64-13.33,11.53a16.21,16.21,0,0,1-8.67,2.94,7.28,7.28,0,0,1-6.4-3.85q-2.41-3.83-2.41-10.39,0-2.95.59-10.78,15.08-16.35,22.16-30.73a66.67,66.67,0,0,0,7.08-29.76,22.05,22.05,0,0,0-1.39-8.63c-.93-2.13-2.11-3.2-3.58-3.2a4.41,4.41,0,0,0-1.35.3L338,170.42a241.57,241.57,0,0,0-16.65,40.83q-6.17,19.94-6.79,34.73a75.81,75.81,0,0,1-8.16,8.13c-.19.16-.37.29-.55.42a10,10,0,0,1-5.91,2.15,3.23,3.23,0,0,1-2.74-1.55,6.78,6.78,0,0,1-1.09-4,35.83,35.83,0,0,1,.81-6.73,138,138,0,0,1,3.86-14.14l7.53-23.58h-.91l-19.14,4A193.55,193.55,0,0,0,279,240.92H115.44l91.24-97L43.95,254.18V273.4H280.76a38.47,38.47,0,0,0,9.14-1,31.28,31.28,0,0,0,5.25-1.74h0a31.12,31.12,0,0,0,3.85-2,20.92,20.92,0,0,0,4.5-3.64,123.9,123.9,0,0,0,11.24-10.6A23.45,23.45,0,0,0,319.38,266a15.74,15.74,0,0,0,13,6.25q7,0,14.72-4.47a106.5,106.5,0,0,0,17.53-13.5A23.5,23.5,0,0,0,369.26,266a15.74,15.74,0,0,0,13,6.25q7,0,14.73-4.47a106,106,0,0,0,17.22-13.22c0,.17,0,.35,0,.52q0,7.46,3.32,12.4t8.13,4.93q8.66,0,26.11-18.27a21.21,21.21,0,0,0,6,11.76,21.92,21.92,0,0,0,16.16,6.36,34.17,34.17,0,0,0,16.77-4.44q7.9-4.37,17.36-13.65a23.51,23.51,0,0,0,5,11.54,17.51,17.51,0,0,0,14.16,6.55q14,0,24.86-16.42,5.35,4.22,10.77,4.22a17.17,17.17,0,0,0,5.73-1.39,24,24,0,0,0,6.66-4.11c0,1,0,2,0,3q0,5.8.6,14.47l16.73-4q.07-6.33.6-11.44c.29-3.42.85-7.29,1.65-11.61a18.7,18.7,0,0,1,4.52-9.49c1.77-2,3.46-3.83,5.12-5.5s3-2.94,4.37-4.15,2.44-2.06,3.54-2.86a15.24,15.24,0,0,1,2.56-1.58,3.72,3.72,0,0,1,1.51-.53c1.16,0,1.73.86,1.73,2.57a75,75,0,0,1-1.13,7.83c-.76,4.37-1.41,7.69-2,9.95l-7.3,31,19.08-3.45L631.37,251l2.51-10.77c.4-1.75,1.71-3.94,3.92-6.55q2-2.34,3.92-4.3c1.21-1.3,2.36-2.46,3.46-3.46a39.5,39.5,0,0,1,3.09-2.57,18.8,18.8,0,0,1,2.56-1.5,4.15,4.15,0,0,1,1.81-.53,2.16,2.16,0,0,1,2.49,2.42q0,2.7-4.07,15.22T647,259.62q0,5.8,2.89,9.23a9.79,9.79,0,0,0,7.88,3.43q6.33,0,13-4.59a127.72,127.72,0,0,0,16.13-13.79v-8.66Q678.18,254.58,674.69,257.17ZM396.53,185.58q5.32-13.87,8.1-13.88c.85,0,1.56.57,2.1,1.7a10.28,10.28,0,0,1,.84,4.5q0,9.5-6,22.7a91.56,91.56,0,0,1-15.51,23.84Q391.22,199.46,396.53,185.58Zm-49.88,0q5.32-13.87,8.1-13.88c.86,0,1.56.57,2.11,1.7a10.3,10.3,0,0,1,.82,4.5q0,9.5-5.95,22.7a91.6,91.6,0,0,1-15.52,23.84Q341.34,199.46,346.65,185.58Zm194,47q0,10.25,7.08,19.14-6.24,9.88-11.6,9.88-4.3,0-6.7-4.22T527,245.54q0-13.72,5.54-24t15.33-10.25a9.07,9.07,0,0,1,3.24.45Q540.68,220.51,540.69,232.57Z"/><path class="cls-1" d="M442.45,180.14c-2.42,0-5.6-1.23-9.57-3.69a55,55,0,0,1-6.77,14.92,16.46,16.46,0,0,0,11.07,3.92q13.33,0,13.33-18.08A13.55,13.55,0,0,1,442.45,180.14Z"/><path class="cls-2" d="M486.68,65.78"/><path class="cls-3" d="M289,105.8"/><path class="cls-4" d="M446.94,58.19"/><path class="cls-4" d="M412.91,146.1a4.91,4.91,0,0,1-9.81,0c0-.12,0-.23,0-.34a4.91,4.91,0,0,1,9.79,0C412.91,145.86,412.91,146,412.91,146.1Z"/><path class="cls-4" d="M352.14,123.13h36.8v23h-3.69a3.85,3.85,0,0,0,0-.5,8.12,8.12,0,0,0-16.25,0,3.85,3.85,0,0,0,0,.5h-3.43Z"/><path class="cls-4" d="M437.81,123.13a33.78,33.78,0,0,1-17.68,23h-4.29a.81.81,0,0,0,0-.16,8.12,8.12,0,1,0-16.25,0,.81.81,0,0,0,0,.16h-3.7v-23Z"/><polygon class="cls-4" points="336.68 92.98 388.94 92.98 388.94 115.73 350.03 115.73 336.68 92.98"/><path class="cls-4" d="M438.57,102.84v9.34a35.31,35.31,0,0,1-.18,3.55H395.92V93h32.79a9.86,9.86,0,0,1,9.86,9.86Z"/><path class="cls-4" d="M357.85,115.21l-.36.21h-7.63l-6.52-11.3a26.94,26.94,0,0,0-4.24-5.38l-.33-.32a27.24,27.24,0,0,0-3.05-2.51c-.65-.46-1.27-.86-1.84-1.19a5.38,5.38,0,0,1,5.3-9,5.42,5.42,0,0,1,2.77,1.9l.6,1,.09.16Z"/><path class="cls-4" d="M382,146.09c0,.17,0,.34,0,.5a4.91,4.91,0,0,1-9.76,0c0-.16,0-.33,0-.5a4.9,4.9,0,1,1,9.8,0Z"/><path class="cls-4" d="M686.92,110.27l-4,2.66-21.09-10.86-14.58-7.52L626.38,108l-5.72,3.68-7.44,4.78.67,14.18.34,7.15.89,18.67,0,.45,1.52.78,10.53,5.43,24,12.34.22-.14L652,179a57.77,57.77,0,0,1-38,1h0a57.55,57.55,0,0,1-16.84-8.69c-.84-.64-1.67-1.29-2.47-2A57.28,57.28,0,0,1,574,125.31a55.46,55.46,0,0,1,.28-5.61L412.91,46.63l-16.33-7.4a32.9,32.9,0,0,0-3.81-1.72A34.44,34.44,0,0,0,362,40.69l-.75.49-11.72,7.68L330.23,61.56l-.11.08L216.68,138.52,62.07,243.31l-36,24.38-5.64,3.83-1.57,1.06C6.86,280.73.36,284.88,0,284.42c-.74-1,28.27-23,79.73-62,31.33-23.73,71-53.77,117.31-89.22,32.43-24.81,62.3-47.82,89.1-68.55C308.94,47,329.49,31.05,347.5,17c5-3.92,10-8.65,15.41-12a34.5,34.5,0,0,1,29.33-3l5.28,2.4L586.28,89.83a57.46,57.46,0,0,1,100.64,20.44Z"/></g></g></svg>